<?xml version="1.0" encoding="UTF-8"?>
<svg id="Ebene_1" xmlns="http://www.w3.org/2000/svg" version="1.1" viewBox="0 0 59.53 59.53">
  <!-- Generator: Adobe Illustrator 29.1.0, SVG Export Plug-In . SVG Version: 2.1.0 Build 142)  -->
  <defs>
    <style>
      .st0 {
        fill: #0d2645;
      }

      .st1 {
        fill: #e4002a;
      }

      .st2 {
        fill: none;
        stroke: #0d2645;
        stroke-miterlimit: 10;
        stroke-width: 2.6px;
      }
    </style>
  </defs>
  <g>
    <rect class="st2" x="7.54" y="36.85" width="10.63" height="16"/>
    <rect class="st0" x="11.2" y="40.76" width="2.83" height="2.83"/>
    <line class="st2" x1="34.24" y1="46.26" x2="28.19" y2="46.26"/>
    <path class="st2" d="M18.3,41.37s3.56-1.77,5.49-1.77,8.09,1.04,9.19,1.1l1.26.08c1.51,0,2.74,1.23,2.74,2.74s-1.23,2.74-2.74,2.74"/>
    <path class="st2" d="M18.06,49.17l8.58,3.63h10.73l13.09-6.58c1.36-.67,1.91-2.32,1.23-3.68s-2.32-1.91-3.68-1.23l-12.42,4.65"/>
  </g>
  <g>
    <rect class="st1" x="31.88" y="25.76" width="7.85" height="7.54"/>
    <g>
      <rect class="st1" x="26.86" y="19.24" width="2.83" height="4.59"/>
      <rect class="st1" x="31.88" y="19.24" width="2.83" height="4.59"/>
      <rect class="st1" x="36.9" y="19.24" width="2.83" height="4.59"/>
      <rect class="st1" x="41.92" y="19.24" width="2.83" height="4.59"/>
    </g>
    <rect class="st1" x="26.86" y="25.76" width="2.83" height="4.59"/>
    <rect class="st1" x="41.92" y="25.76" width="2.83" height="4.59"/>
    <rect class="st2" x="23.35" y="15.96" width="24.92" height="17.77"/>
    <polygon class="st2" points="49.98 15.87 21.63 15.87 26.06 6.67 45.55 6.67 49.98 15.87"/>
  </g>
</svg>