<?xml version="1.0" encoding="UTF-8"?>
<svg id="Ebene_1" xmlns="http://www.w3.org/2000/svg" version="1.1" viewBox="0 0 59.53 59.53">
  <!-- Generator: Adobe Illustrator 29.1.0, SVG Export Plug-In . SVG Version: 2.1.0 Build 142)  -->
  <defs>
    <style>
      .st0, .st1 {
        stroke-linejoin: round;
      }

      .st0, .st1, .st2 {
        fill: none;
        stroke-width: 2.6px;
      }

      .st0, .st2 {
        stroke: #0d2645;
      }

      .st1 {
        stroke: #e4002a;
      }
    </style>
  </defs>
  <path class="st1" d="M17.79,9.69l-1.75,2.79,1.75,2.79"/>
  <path class="st1" d="M23.91,9.69l-1.75,2.79,1.75,2.79"/>
  <path class="st1" d="M30.03,9.69l-1.75,2.79,1.75,2.79"/>
  <path class="st1" d="M36.15,9.69l-1.75,2.79,1.75,2.79"/>
  <path class="st1" d="M42.26,9.69l-1.75,2.79,1.75,2.79"/>
  <path class="st1" d="M48.38,9.69l-1.75,2.79,1.75,2.79"/>
  <rect class="st2" x="11.33" y="19.82" width="41.77" height="24.25"/>
  <path class="st2" d="M12.55,49.84h39.33"/>
  <path class="st2" d="M23.04,24.53v15.71"/>
  <path class="st2" d="M16.92,24.53v15.71"/>
  <path class="st2" d="M29.15,24.53v15.71"/>
  <path class="st2" d="M35.27,24.53v15.71"/>
  <path class="st2" d="M41.39,24.53v15.71"/>
  <path class="st2" d="M47.51,24.53v15.71"/>
  <path class="st0" d="M19.54,45.47v3.49"/>
  <path class="st0" d="M44.89,45.47v3.49"/>
  <path class="st2" d="M10.8,21.91h-4.37v3.49h4.37"/>
  <path class="st2" d="M10.8,35.87h-4.37v3.49h4.37"/>
</svg>