<?xml version="1.0" encoding="UTF-8"?>
<svg id="Ebene_1" xmlns="http://www.w3.org/2000/svg" xmlns:xlink="http://www.w3.org/1999/xlink" version="1.1" viewBox="0 0 59.53 59.53">
  <!-- Generator: Adobe Illustrator 29.1.0, SVG Export Plug-In . SVG Version: 2.1.0 Build 142)  -->
  <defs>
    <style>
      .st0 {
        mask: url(#mask);
      }

      .st1 {
        mask: url(#mask-1);
      }

      .st2 {
        fill: #fff;
      }

      .st3 {
        stroke: #0d2645;
      }

      .st3, .st4 {
        fill: none;
        stroke-miterlimit: 10;
        stroke-width: 2.6px;
      }

      .st4 {
        stroke: #e4002a;
      }
    </style>
    <mask id="mask" x="5.72" y="6.08" width="48.07" height="48.1" maskUnits="userSpaceOnUse">
      <g id="mask0_781_2686">
        <path class="st2" d="M53.79,6.08H5.72v48h48.07V6.08Z"/>
      </g>
    </mask>
    <mask id="mask-1" x="5.72" y="6.08" width="48.07" height="48.1" maskUnits="userSpaceOnUse">
      <g id="mask1_781_2686">
        <path class="st2" d="M5.72,6.08h48.07v48H5.72V6.08Z"/>
      </g>
    </mask>
  </defs>
  <g class="st0">
    <g class="st1">
      <g>
        <path class="st3" d="M29.94,48.53l-15.83-16.81c-2.61-2.77-3.32-6.82-1.83-10.31,2.27-5.3,8.69-7.4,13.66-4.47l3.99,2.35,3.99-2.35c4.97-2.93,11.39-.83,13.66,4.47,1.5,3.49.78,7.54-1.83,10.31l-15.83,16.81Z"/>
        <path class="st3" d="M7.47,31.12h14.29l2.65-3.98,5.35,9,5.35-11.46,3.13,6.92h13.81"/>
        <path class="st4" d="M29.76,11.16v-5.08"/>
        <path class="st4" d="M13.8,12.31l-2.92-4.28"/>
        <path class="st4" d="M45.82,12.31l2.92-4.28"/>
        <path class="st4" d="M13.8,49.17l-2.92,4.28"/>
        <path class="st4" d="M45.82,49.17l2.92,4.28"/>
      </g>
    </g>
  </g>
</svg>