<?xml version="1.0" encoding="UTF-8"?>
<svg id="Ebene_1" xmlns="http://www.w3.org/2000/svg" version="1.1" viewBox="0 0 59.53 59.53">
  <!-- Generator: Adobe Illustrator 29.1.0, SVG Export Plug-In . SVG Version: 2.1.0 Build 142)  -->
  <defs>
    <style>
      .st0 {
        stroke-linecap: round;
      }

      .st0, .st1, .st2 {
        fill: none;
        stroke-miterlimit: 13.33;
        stroke-width: 2.31px;
      }

      .st0, .st2 {
        stroke: #e4002a;
      }

      .st1 {
        stroke: #0d2645;
      }
    </style>
  </defs>
  <g id="g333">
    <g id="g335">
      <g id="g337">
        <g id="g343">
          <path id="path345" class="st0" d="M21.44,37.13c1.92,2.49,4.94,4.09,8.32,4.09s6.4-1.6,8.32-4.09"/>
        </g>
        <g id="g347">
          <path id="path349" class="st1" d="M48.33,29.76c0,10.25-8.31,18.57-18.57,18.57s-18.57-8.31-18.57-18.57S19.51,11.2,29.76,11.2s18.57,8.31,18.57,18.57Z"/>
        </g>
        <g id="g351">
          <path id="path353" class="st2" d="M23.56,26.58c0,.62-.5,1.12-1.12,1.12s-1.12-.5-1.12-1.12.5-1.12,1.12-1.12,1.12.5,1.12,1.12Z"/>
        </g>
        <g id="g355">
          <path id="path357" class="st2" d="M38.2,26.58c0,.62-.5,1.12-1.12,1.12s-1.12-.5-1.12-1.12.5-1.12,1.12-1.12,1.12.5,1.12,1.12Z"/>
        </g>
      </g>
    </g>
  </g>
</svg>