<?xml version="1.0" encoding="UTF-8"?>
<svg id="Ebene_1" xmlns="http://www.w3.org/2000/svg" version="1.1" viewBox="0 0 59.53 59.53">
  <!-- Generator: Adobe Illustrator 29.1.0, SVG Export Plug-In . SVG Version: 2.1.0 Build 142)  -->
  <defs>
    <style>
      .st0 {
        fill: #0d2645;
      }

      .st1 {
        stroke: #0d2645;
      }

      .st1, .st2 {
        fill: none;
        stroke-miterlimit: 10;
        stroke-width: 2.6px;
      }

      .st2 {
        stroke: #e4002a;
      }
    </style>
  </defs>
  <rect class="st1" x="8.5" y="35.01" width="10.63" height="16"/>
  <g>
    <line class="st2" x1="21.76" y1="13.91" x2="37.58" y2="13.91"/>
    <line class="st2" x1="21.76" y1="19.04" x2="37.58" y2="19.04"/>
    <line class="st2" x1="21.76" y1="24.16" x2="37.58" y2="24.16"/>
  </g>
  <polygon class="st1" points="41.6 8.34 17.74 8.34 17.74 29.73 33.24 29.73 39.12 31.76 39.12 29.73 41.6 29.73 41.6 8.34"/>
  <rect class="st0" x="12.15" y="38.92" width="2.83" height="2.83"/>
  <line class="st1" x1="33.2" y1="44.42" x2="27.15" y2="44.42"/>
  <path class="st1" d="M19.21,38.69s1.62-.94,3.55-.94,8.09,1.04,9.19,1.1l1.26.08c1.51,0,2.74,1.23,2.74,2.74s-1.23,2.74-2.74,2.74"/>
  <path class="st1" d="M18.92,48l6.68,2.95h10.73l13.09-6.58c1.36-.67,1.91-2.32,1.23-3.68s-2.32-1.91-3.68-1.23l-12.42,4.65"/>
</svg>