<?xml version="1.0" encoding="UTF-8"?>
<svg id="Ebene_1" xmlns="http://www.w3.org/2000/svg" version="1.1" viewBox="0 0 59.53 59.53">
  <!-- Generator: Adobe Illustrator 29.1.0, SVG Export Plug-In . SVG Version: 2.1.0 Build 142)  -->
  <defs>
    <style>
      .st0 {
        stroke: #0d2645;
      }

      .st0, .st1 {
        fill: none;
        stroke-miterlimit: 10;
        stroke-width: 2.6px;
      }

      .st1 {
        stroke: #e4002a;
      }
    </style>
  </defs>
  <g>
    <path class="st0" d="M23.67,36.77v-16.87"/>
    <path class="st0" d="M17.58,19.98v16.82"/>
    <polyline class="st0" points="38.12 15.58 38.12 31.1 44.2 31.1 44.2 15.3"/>
    <path class="st0" d="M47.25,31.1h-12.19v6.09h3.04c-1.68,0-3.04,1.36-3.04,3.04v7.89c0,3.36,2.73,6.09,6.09,6.09h0c3.36,0,6.09-2.73,6.09-6.09v-7.89c0-1.68-1.36-3.04-3.04-3.04h3.04v-6.09h0Z"/>
  </g>
  <path class="st1" d="M23.67,20.07v-1.64c2.23-1.12,3.75-3.42,3.75-6.08s-1.53-4.96-3.75-6.08v3.03c0,1.68-1.36,3.04-3.04,3.04h0c-1.68,0-3.04-1.36-3.04-3.04v-3.03c-2.23,1.12-3.75,3.42-3.75,6.08s1.53,4.96,3.75,6.08v1.64"/>
  <polyline class="st1" points="44.2 16.07 44.2 14.69 46.23 11.81 43.7 5.32 38.63 5.32 36.09 11.81 38.12 14.69 38.12 16.07"/>
  <path class="st1" d="M17.58,36v1.92c-3.11,1.22-5.31,4.24-5.31,7.78s2.2,6.56,5.31,7.78v-4.74c0-1.68,1.36-3.04,3.04-3.04s3.04,1.36,3.04,3.04v4.74c3.11-1.22,5.31-4.24,5.31-7.78s-2.2-6.56-5.31-7.78v-1.92"/>
</svg>