<?xml version="1.0" encoding="utf-8"?>
<!-- Generator: Adobe Illustrator 16.0.4, SVG Export Plug-In . SVG Version: 6.00 Build 0)  -->
<!DOCTYPE svg PUBLIC "-//W3C//DTD SVG 1.1//EN" "http://www.w3.org/Graphics/SVG/1.1/DTD/svg11.dtd">
<svg version="1.1" id="Ebene_1" xmlns="http://www.w3.org/2000/svg" xmlns:xlink="http://www.w3.org/1999/xlink" x="0px" y="0px"
	 width="398px" height="60.771px" viewBox="0 0 398 60.771" enable-background="new 0 0 398 60.771" xml:space="preserve">
<title>Group 17 Copy 2</title>
<desc>Created with Sketch.</desc>
<g>
	<path fill="#002749" d="M157.073,47.212h-1.743v1.793h1.743V47.212z M48.723,55.312c0-0.381,0.005-0.78,0.016-1.199
		c0.012-0.417,0.022-0.849,0.034-1.294c0.021-1.077-0.248-1.858-0.807-2.349c-0.56-0.488-1.431-0.731-2.615-0.731
		c-0.575,0-1.081,0.066-1.516,0.203c-0.434,0.136-0.801,0.32-1.1,0.554s-0.529,0.514-0.692,0.84
		c-0.163,0.325-0.261,0.679-0.292,1.059l1.922,0.065c0.033-0.414,0.19-0.718,0.473-0.912c0.282-0.196,0.651-0.294,1.107-0.294
		c0.457,0,0.812,0.091,1.068,0.27c0.254,0.178,0.382,0.507,0.382,0.984v0.277l-1.466,0.163c-0.674,0.076-1.257,0.181-1.752,0.31
		c-0.494,0.131-0.915,0.332-1.263,0.603c-0.228,0.186-0.41,0.419-0.546,0.702c-0.136,0.283-0.204,0.608-0.204,0.978
		c0,0.336,0.065,0.661,0.195,0.979c0.13,0.314,0.321,0.592,0.57,0.831c0.25,0.238,0.557,0.431,0.921,0.578
		c0.364,0.146,0.774,0.219,1.23,0.219c0.619,0,1.129-0.083,1.531-0.253c0.401-0.168,0.734-0.437,0.994-0.806l0.05,0.864h1.922
		c-0.054-0.456-0.095-0.901-0.122-1.337C48.737,56.181,48.723,55.745,48.723,55.312z M46.751,54.709
		c0,0.325-0.051,0.604-0.155,0.838s-0.241,0.43-0.416,0.588c-0.174,0.157-0.375,0.273-0.603,0.35
		c-0.228,0.076-0.467,0.115-0.717,0.115c-0.414,0-0.729-0.106-0.945-0.318c-0.217-0.212-0.326-0.465-0.326-0.759
		c0-0.314,0.133-0.563,0.4-0.748c0.265-0.186,0.714-0.316,1.344-0.393l1.418-0.162V54.709z M55.085,57.952h2.085v-7.985h-2.085
		V57.952z M50.83,57.952h2.086V47.131H50.83V57.952z M70.035,47.587h-2.085v2.38h-1.157v1.547h1.157v4.237
		c0,0.413,0.027,0.758,0.082,1.036c0.054,0.275,0.164,0.502,0.326,0.675c0.163,0.174,0.388,0.299,0.675,0.375
		c0.288,0.076,0.666,0.115,1.133,0.115h1.531v-1.614h-0.635c-0.37,0-0.633-0.062-0.79-0.188c-0.158-0.124-0.237-0.393-0.237-0.807
		v-3.83h1.695v-1.547h-1.695V47.587z M55.085,49.07h2.085v-1.939h-2.085V49.07z M65.333,53.829
		c-0.276-0.174-0.603-0.315-0.978-0.425c-0.374-0.107-0.773-0.21-1.197-0.31l-0.945-0.212c-0.348-0.074-0.633-0.184-0.856-0.325
		s-0.333-0.32-0.333-0.538c0-0.228,0.13-0.406,0.391-0.537c0.26-0.131,0.581-0.196,0.961-0.196c0.521,0,0.942,0.115,1.263,0.343
		c0.32,0.229,0.518,0.517,0.594,0.863l1.89-0.26c-0.076-0.425-0.233-0.789-0.472-1.093c-0.238-0.305-0.524-0.556-0.855-0.757
		c-0.331-0.202-0.695-0.351-1.091-0.449c-0.397-0.098-0.796-0.146-1.199-0.146c-0.478,0-0.923,0.055-1.335,0.164
		c-0.414,0.107-0.772,0.265-1.077,0.472s-0.544,0.456-0.725,0.75c-0.179,0.294-0.269,0.624-0.269,0.994
		c0,0.369,0.065,0.689,0.196,0.962c0.13,0.271,0.311,0.502,0.545,0.691c0.233,0.19,0.514,0.348,0.839,0.474
		c0.326,0.124,0.685,0.229,1.076,0.316l1.059,0.228c0.195,0.045,0.377,0.089,0.545,0.131c0.168,0.045,0.314,0.098,0.44,0.163
		c0.125,0.065,0.223,0.146,0.293,0.244c0.071,0.099,0.106,0.223,0.106,0.375c0,0.306-0.131,0.528-0.392,0.668
		c-0.261,0.142-0.619,0.212-1.076,0.212c-0.564,0-1.001-0.143-1.311-0.431c-0.31-0.289-0.491-0.628-0.545-1.019l-1.972,0.293
		c0.043,0.391,0.165,0.752,0.367,1.084c0.201,0.331,0.464,0.613,0.791,0.847c0.325,0.233,0.706,0.416,1.14,0.547
		c0.435,0.129,0.913,0.194,1.434,0.194c0.478,0,0.935-0.057,1.369-0.172c0.435-0.112,0.815-0.284,1.141-0.513
		c0.327-0.228,0.587-0.507,0.783-0.838c0.194-0.332,0.292-0.709,0.292-1.133c0-0.401-0.079-0.736-0.236-1.003
		C65.828,54.223,65.611,54.002,65.333,53.829z M37.643,49.07h2.086v-1.939h-2.086V49.07z M35.893,51.514v-1.547h-6.421v1.547H33.4
		l-4.286,4.89v1.549h6.909v-1.549h-4.416L35.893,51.514z M7.943,52.501c-0.353-0.244-0.749-0.437-1.189-0.578
		c-0.439-0.142-0.883-0.257-1.328-0.344l-1.434-0.293c-0.434-0.087-0.793-0.233-1.076-0.44c-0.283-0.205-0.423-0.499-0.423-0.879
		c0-0.238,0.059-0.44,0.179-0.603c0.12-0.163,0.271-0.297,0.457-0.399c0.185-0.103,0.388-0.179,0.611-0.229s0.443-0.072,0.66-0.072
		c0.282,0,0.562,0.028,0.839,0.088c0.276,0.061,0.532,0.161,0.767,0.303c0.233,0.142,0.433,0.32,0.602,0.537
		c0.168,0.218,0.285,0.488,0.351,0.815l2.086-0.277c-0.109-0.521-0.3-0.979-0.57-1.378c-0.272-0.396-0.606-0.729-1.002-1.002
		c-0.396-0.271-0.845-0.475-1.344-0.61c-0.5-0.136-1.032-0.203-1.597-0.203c-0.489,0-0.98,0.059-1.475,0.179
		c-0.494,0.12-0.945,0.304-1.353,0.553c-0.407,0.252-0.738,0.571-0.994,0.962c-0.255,0.392-0.383,0.858-0.383,1.402
		c0,0.478,0.084,0.894,0.253,1.247c0.168,0.352,0.396,0.654,0.684,0.903c0.288,0.251,0.625,0.456,1.01,0.619
		c0.386,0.164,0.796,0.288,1.23,0.374l1.434,0.294c0.587,0.12,1.068,0.283,1.442,0.49c0.375,0.205,0.562,0.537,0.562,0.993
		c0,0.283-0.064,0.519-0.195,0.709c-0.131,0.189-0.299,0.342-0.506,0.456c-0.206,0.113-0.437,0.193-0.692,0.235
		c-0.255,0.044-0.508,0.065-0.757,0.065c-0.674,0-1.252-0.162-1.736-0.488c-0.483-0.325-0.807-0.875-0.97-1.646L0,54.562
		c0.174,1.086,0.662,1.956,1.467,2.606c0.804,0.652,1.896,0.978,3.275,0.978c0.565,0,1.11-0.067,1.637-0.203
		c0.527-0.137,0.995-0.343,1.401-0.619c0.408-0.277,0.734-0.624,0.978-1.043c0.245-0.417,0.367-0.905,0.367-1.459
		s-0.109-1.019-0.326-1.394C8.582,53.055,8.297,52.745,7.943,52.501z M27.839,52.614c-0.168-0.591-0.423-1.097-0.766-1.516
		c-0.342-0.417-0.766-0.741-1.271-0.969c-0.505-0.229-1.084-0.343-1.735-0.343c-0.62,0-1.177,0.104-1.671,0.311
		c-0.494,0.205-0.917,0.493-1.271,0.863c-0.353,0.369-0.625,0.81-0.814,1.318c-0.19,0.512-0.286,1.072-0.286,1.681
		c0,0.585,0.087,1.131,0.261,1.637c0.174,0.506,0.433,0.948,0.774,1.328c0.343,0.38,0.769,0.679,1.28,0.896
		c0.51,0.218,1.102,0.325,1.775,0.325c0.566,0,1.062-0.078,1.492-0.235c0.428-0.157,0.798-0.358,1.107-0.603
		c0.311-0.246,0.562-0.515,0.759-0.809c0.195-0.291,0.342-0.579,0.44-0.862l-1.956-0.262c-0.12,0.327-0.332,0.603-0.636,0.833
		c-0.304,0.228-0.716,0.341-1.238,0.341c-0.577,0-1.046-0.179-1.409-0.537c-0.364-0.359-0.557-0.831-0.579-1.418h5.948
		C28.076,53.867,28.008,53.206,27.839,52.614z M22.095,53.145c0.011-0.336,0.079-0.622,0.204-0.855
		c0.124-0.233,0.277-0.425,0.456-0.57c0.179-0.146,0.38-0.252,0.603-0.317c0.223-0.065,0.442-0.1,0.66-0.1
		c0.228,0,0.456,0.037,0.684,0.106c0.229,0.07,0.432,0.181,0.612,0.327c0.179,0.146,0.328,0.336,0.447,0.569
		c0.121,0.233,0.185,0.515,0.196,0.84H22.095z M103.795,47.212h-1.744v1.793h1.744V47.212z M107.429,47.212h-1.744v1.793h1.744
		V47.212z M17.755,50.896c-0.31-0.359-0.679-0.633-1.108-0.822c-0.429-0.191-0.894-0.286-1.394-0.286
		c-0.456,0-0.879,0.081-1.271,0.245c-0.392,0.163-0.718,0.428-0.978,0.798v-0.863h-2.021v10.804h2.086v-3.536
		c0.217,0.251,0.491,0.465,0.822,0.644c0.332,0.181,0.742,0.269,1.23,0.269c0.51,0,0.986-0.098,1.425-0.293
		c0.44-0.195,0.824-0.473,1.149-0.831c0.325-0.357,0.582-0.796,0.766-1.312c0.185-0.515,0.277-1.093,0.277-1.734
		c0-0.652-0.087-1.238-0.261-1.76C18.307,51.694,18.065,51.254,17.755,50.896z M16.167,55.825c-0.304,0.482-0.745,0.725-1.321,0.725
		c-0.586,0-1.042-0.233-1.369-0.7c-0.325-0.467-0.489-1.093-0.489-1.874c0-0.805,0.164-1.438,0.489-1.899
		c0.326-0.461,0.782-0.691,1.369-0.691c0.576,0,1.017,0.239,1.321,0.717c0.304,0.479,0.456,1.098,0.456,1.858
		C16.624,54.72,16.472,55.342,16.167,55.825z M37.643,57.952h2.086v-7.985h-2.086V57.952z M153.44,47.212h-1.744v1.793h1.744V47.212
		z M80.662,52.614c-0.168-0.591-0.424-1.097-0.766-1.516c-0.343-0.417-0.766-0.741-1.271-0.969
		c-0.505-0.229-1.083-0.343-1.735-0.343c-0.62,0-1.177,0.104-1.67,0.311c-0.495,0.205-0.918,0.493-1.271,0.863
		c-0.354,0.369-0.625,0.81-0.815,1.318c-0.19,0.512-0.285,1.072-0.285,1.681c0,0.585,0.086,1.131,0.26,1.637
		c0.174,0.506,0.432,0.948,0.774,1.328c0.343,0.38,0.769,0.679,1.279,0.896s1.103,0.325,1.776,0.325
		c0.565,0,1.062-0.078,1.491-0.235c0.429-0.157,0.798-0.358,1.108-0.603c0.31-0.246,0.562-0.515,0.758-0.809
		c0.195-0.291,0.342-0.579,0.44-0.862l-1.956-0.262c-0.119,0.327-0.332,0.603-0.636,0.833c-0.304,0.228-0.717,0.341-1.237,0.341
		c-0.577,0-1.047-0.179-1.41-0.537c-0.364-0.359-0.557-0.831-0.579-1.418h5.948C80.897,53.867,80.83,53.206,80.662,52.614z
		 M74.917,53.145c0.011-0.336,0.08-0.622,0.204-0.855s0.277-0.425,0.456-0.57c0.18-0.146,0.38-0.252,0.603-0.317
		s0.443-0.1,0.661-0.1c0.228,0,0.456,0.037,0.684,0.106c0.228,0.07,0.432,0.181,0.611,0.327c0.18,0.146,0.328,0.336,0.448,0.569
		c0.119,0.233,0.184,0.515,0.195,0.84H74.917z M200.86,52.614c-0.168-0.591-0.424-1.097-0.766-1.516
		c-0.343-0.417-0.766-0.741-1.271-0.969c-0.505-0.229-1.084-0.343-1.735-0.343c-0.619,0-1.177,0.104-1.67,0.311
		c-0.495,0.205-0.918,0.493-1.271,0.863c-0.354,0.369-0.625,0.81-0.814,1.318c-0.19,0.512-0.285,1.072-0.285,1.681
		c0,0.585,0.087,1.131,0.26,1.637c0.175,0.506,0.433,0.948,0.774,1.328c0.344,0.38,0.77,0.679,1.279,0.896
		c0.511,0.218,1.103,0.325,1.776,0.325c0.565,0,1.062-0.078,1.491-0.235c0.429-0.157,0.799-0.358,1.108-0.603
		c0.31-0.246,0.562-0.515,0.758-0.809c0.195-0.291,0.342-0.579,0.439-0.862l-1.955-0.262c-0.119,0.327-0.332,0.603-0.636,0.833
		c-0.305,0.228-0.717,0.341-1.238,0.341c-0.576,0-1.046-0.179-1.409-0.537c-0.364-0.359-0.558-0.831-0.579-1.418h5.947
		C201.097,53.867,201.028,53.206,200.86,52.614z M195.116,53.145c0.011-0.336,0.079-0.622,0.204-0.855
		c0.124-0.233,0.276-0.425,0.456-0.57c0.18-0.146,0.38-0.252,0.603-0.317s0.443-0.1,0.66-0.1c0.229,0,0.457,0.037,0.685,0.106
		c0.229,0.07,0.432,0.181,0.611,0.327s0.328,0.336,0.448,0.569c0.119,0.233,0.184,0.515,0.195,0.84H195.116z M190.332,47.587h-2.086
		v2.38h-1.157v1.547h1.157v4.237c0,0.413,0.026,0.758,0.082,1.036c0.055,0.275,0.162,0.502,0.325,0.675
		c0.163,0.174,0.389,0.299,0.677,0.375c0.287,0.076,0.665,0.115,1.132,0.115h1.532v-1.614h-0.636c-0.369,0-0.633-0.062-0.79-0.188
		c-0.158-0.124-0.236-0.393-0.236-0.807v-3.83h1.694v-1.547h-1.694V47.587z M218.474,50.717c-0.478-0.619-1.228-0.93-2.249-0.93
		c-0.499,0-0.959,0.09-1.378,0.269c-0.417,0.18-0.746,0.454-0.984,0.823v-3.748h-2.087v10.821h2.087v-4.074
		c0-0.327,0.024-0.633,0.072-0.921c0.05-0.288,0.135-0.543,0.253-0.766c0.12-0.223,0.288-0.399,0.506-0.53
		c0.217-0.129,0.498-0.194,0.847-0.194c0.283,0,0.513,0.042,0.693,0.129c0.179,0.088,0.323,0.207,0.431,0.358
		c0.121,0.163,0.198,0.364,0.237,0.604c0.037,0.238,0.057,0.532,0.057,0.88v4.515h2.087v-4.971c0-0.543-0.05-0.993-0.147-1.353
		C218.799,51.271,218.657,50.966,218.474,50.717z M186.035,52.614c-0.169-0.591-0.423-1.097-0.767-1.516
		c-0.341-0.417-0.766-0.741-1.27-0.969c-0.505-0.229-1.084-0.343-1.736-0.343c-0.619,0-1.176,0.104-1.671,0.311
		c-0.493,0.205-0.917,0.493-1.271,0.863c-0.353,0.369-0.625,0.81-0.814,1.318c-0.191,0.512-0.286,1.072-0.286,1.681
		c0,0.585,0.087,1.131,0.261,1.637c0.173,0.506,0.432,0.948,0.773,1.328c0.342,0.38,0.769,0.679,1.279,0.896
		c0.511,0.218,1.103,0.325,1.776,0.325c0.565,0,1.062-0.078,1.491-0.235c0.429-0.157,0.798-0.358,1.108-0.603
		c0.311-0.246,0.562-0.515,0.758-0.809c0.196-0.291,0.343-0.579,0.44-0.862l-1.956-0.262c-0.12,0.327-0.332,0.603-0.635,0.833
		c-0.304,0.228-0.717,0.341-1.239,0.341c-0.576,0-1.045-0.179-1.409-0.537c-0.364-0.359-0.557-0.831-0.578-1.418h5.948
		C186.271,53.867,186.204,53.206,186.035,52.614z M180.292,53.145c0.01-0.336,0.078-0.622,0.203-0.855
		c0.125-0.233,0.278-0.425,0.456-0.57c0.18-0.146,0.38-0.252,0.603-0.317c0.223-0.065,0.442-0.1,0.66-0.1
		c0.228,0,0.456,0.037,0.685,0.106c0.228,0.07,0.432,0.181,0.611,0.327c0.179,0.146,0.329,0.336,0.448,0.569
		c0.12,0.233,0.185,0.515,0.195,0.84H180.292z M230.51,57.952h2.084v-7.985h-2.084V57.952z M227.841,50.717
		c-0.479-0.619-1.229-0.93-2.249-0.93c-0.5,0-0.96,0.09-1.377,0.269c-0.419,0.18-0.748,0.454-0.987,0.823v-0.912h-2.084v7.985h2.084
		v-4.074c0-0.327,0.025-0.633,0.075-0.921c0.049-0.288,0.132-0.543,0.252-0.766c0.119-0.223,0.287-0.399,0.504-0.53
		c0.218-0.129,0.501-0.194,0.85-0.194c0.28,0,0.513,0.042,0.691,0.129c0.18,0.088,0.323,0.207,0.433,0.358
		c0.118,0.163,0.198,0.364,0.235,0.604c0.039,0.238,0.057,0.532,0.057,0.88v4.515h2.086v-4.971c0-0.543-0.049-0.993-0.146-1.353
		C228.167,51.271,228.025,50.966,227.841,50.717z M239.279,52.981l2.884-3.015h-2.461l-2.853,3.015v-5.851h-2.084v10.821h2.084
		v-2.43l0.996-1.041l2.101,3.471h2.396L239.279,52.981z M230.51,49.07h2.084v-1.939h-2.084V49.07z M174.409,50.701
		c-0.218-0.252-0.492-0.466-0.823-0.646c-0.332-0.179-0.742-0.269-1.23-0.269c-0.51,0-0.986,0.099-1.426,0.293
		c-0.44,0.196-0.822,0.474-1.148,0.831c-0.326,0.359-0.581,0.796-0.767,1.312c-0.184,0.516-0.275,1.094-0.275,1.736
		c0,0.65,0.086,1.237,0.26,1.759s0.416,0.962,0.725,1.321c0.309,0.356,0.677,0.633,1.1,0.822c0.424,0.188,0.891,0.284,1.402,0.284
		c0.456,0,0.879-0.081,1.271-0.244c0.391-0.162,0.716-0.43,0.978-0.799l0.016,0.849h2.004V47.131h-2.085V50.701z M174.001,55.856
		c-0.326,0.464-0.782,0.693-1.369,0.693c-0.576,0-1.015-0.238-1.319-0.716c-0.304-0.479-0.456-1.099-0.456-1.858
		c0-0.761,0.152-1.383,0.456-1.865c0.304-0.484,0.744-0.726,1.319-0.726c0.587,0,1.043,0.233,1.369,0.7s0.489,1.091,0.489,1.875
		C174.49,54.763,174.327,55.396,174.001,55.856z M207.905,55.784c-0.126,0.194-0.272,0.351-0.44,0.465
		c-0.168,0.113-0.349,0.193-0.538,0.235c-0.19,0.044-0.378,0.065-0.562,0.065c-0.556,0-1.008-0.218-1.361-0.652
		c-0.353-0.434-0.529-1.08-0.529-1.938c0-0.859,0.177-1.503,0.529-1.932c0.354-0.43,0.806-0.644,1.361-0.644
		c0.543,0,0.954,0.147,1.237,0.438c0.283,0.294,0.462,0.643,0.538,1.044l1.971-0.294c-0.118-0.488-0.299-0.909-0.537-1.263
		c-0.238-0.352-0.527-0.64-0.863-0.862c-0.337-0.223-0.703-0.39-1.1-0.497c-0.397-0.109-0.807-0.164-1.23-0.164
		c-0.642,0-1.208,0.104-1.703,0.311c-0.494,0.205-0.915,0.492-1.262,0.854c-0.349,0.364-0.612,0.805-0.791,1.32
		c-0.18,0.517-0.269,1.084-0.269,1.703s0.089,1.185,0.269,1.693c0.179,0.512,0.437,0.948,0.774,1.312
		c0.336,0.364,0.752,0.648,1.247,0.855c0.493,0.207,1.056,0.31,1.685,0.31c0.436,0,0.856-0.055,1.265-0.162
		c0.406-0.108,0.781-0.28,1.123-0.514c0.343-0.233,0.638-0.53,0.889-0.889c0.25-0.357,0.44-0.787,0.569-1.287l-1.987-0.276
		C208.124,55.333,208.028,55.588,207.905,55.784z M97.704,47.212c-0.38,0.055-0.696,0.166-0.945,0.334
		c-0.25,0.17-0.435,0.411-0.554,0.726c-0.12,0.316-0.18,0.729-0.18,1.239v0.456h-1.156v1.547h1.156v6.438h2.086v-6.438h1.629v-1.547
		h-1.629v-0.196c0-0.218,0.016-0.391,0.049-0.521c0.032-0.129,0.092-0.228,0.179-0.293c0.086-0.064,0.208-0.108,0.367-0.13
		c0.158-0.022,0.367-0.033,0.627-0.033h0.408v-1.662H99.04C98.53,47.131,98.084,47.159,97.704,47.212z M106.207,53.976
		c0,0.325-0.021,0.638-0.064,0.937c-0.043,0.299-0.125,0.564-0.245,0.798c-0.119,0.235-0.288,0.419-0.505,0.556
		c-0.217,0.136-0.5,0.203-0.848,0.203c-0.282,0-0.507-0.044-0.675-0.131c-0.169-0.087-0.308-0.205-0.416-0.359
		c-0.121-0.162-0.196-0.36-0.229-0.594c-0.033-0.233-0.049-0.508-0.049-0.822v-4.596h-2.085v4.986c0,1.064,0.201,1.836,0.603,2.314
		c0.478,0.586,1.206,0.879,2.184,0.879c0.5,0,0.953-0.096,1.36-0.284c0.408-0.189,0.73-0.46,0.969-0.807v0.896h2.086v-7.985h-2.086
		V53.976z M114.678,49.982c-0.467,0-0.882,0.104-1.247,0.31c-0.364,0.207-0.666,0.517-0.904,0.929v-1.254h-2.054v7.985h2.086v-4.107
		c0-0.38,0.041-0.695,0.122-0.944c0.081-0.251,0.198-0.445,0.35-0.587c0.152-0.142,0.332-0.239,0.538-0.294
		c0.207-0.055,0.44-0.081,0.701-0.081c0.282,0,0.57,0.016,0.864,0.05v-1.974c-0.065-0.011-0.138-0.018-0.219-0.022
		C114.833,49.986,114.754,49.982,114.678,49.982z M89.264,50.717c-0.478-0.619-1.227-0.93-2.249-0.93c-0.5,0-0.958,0.09-1.376,0.269
		c-0.418,0.18-0.747,0.454-0.986,0.823v-0.912h-2.086v7.985h2.086v-4.074c0-0.327,0.025-0.633,0.073-0.921
		c0.049-0.288,0.133-0.543,0.252-0.766c0.121-0.223,0.289-0.399,0.506-0.53c0.217-0.129,0.5-0.194,0.847-0.194
		c0.283,0,0.514,0.042,0.693,0.129c0.179,0.088,0.323,0.207,0.432,0.358c0.119,0.163,0.198,0.364,0.237,0.604
		c0.037,0.238,0.057,0.532,0.057,0.88v4.515h2.085v-4.971c0-0.543-0.048-0.993-0.146-1.353
		C89.589,51.271,89.449,50.966,89.264,50.717z M148.293,50.896c-0.31-0.359-0.679-0.633-1.108-0.822
		c-0.43-0.191-0.894-0.286-1.393-0.286c-0.456,0-0.87,0.075-1.239,0.228c-0.37,0.154-0.684,0.403-0.945,0.75v-3.634h-2.086v10.821
		h2.021l0.033-0.718c0.216,0.251,0.497,0.465,0.839,0.644c0.343,0.181,0.759,0.269,1.247,0.269c0.511,0,0.987-0.098,1.426-0.293
		c0.439-0.195,0.823-0.473,1.148-0.831c0.327-0.357,0.582-0.796,0.767-1.312c0.185-0.515,0.277-1.093,0.277-1.734
		c0-0.652-0.086-1.238-0.26-1.76C148.844,51.694,148.604,51.254,148.293,50.896z M146.705,55.825
		c-0.304,0.482-0.744,0.725-1.32,0.725c-0.586,0-1.042-0.233-1.369-0.7c-0.326-0.467-0.488-1.093-0.488-1.874
		c0-0.805,0.163-1.438,0.488-1.899c0.327-0.461,0.783-0.691,1.369-0.691c0.576,0,1.016,0.239,1.32,0.717
		c0.304,0.479,0.457,1.098,0.457,1.858C147.161,54.72,147.009,55.342,146.705,55.825z M157.807,55.312
		c0-0.381,0.005-0.78,0.016-1.199c0.01-0.417,0.021-0.849,0.032-1.294c0.022-1.077-0.247-1.858-0.806-2.349
		c-0.56-0.488-1.432-0.731-2.615-0.731c-0.577,0-1.082,0.066-1.516,0.203c-0.435,0.136-0.801,0.32-1.1,0.554s-0.53,0.514-0.693,0.84
		c-0.163,0.325-0.261,0.679-0.294,1.059l1.924,0.065c0.032-0.414,0.189-0.718,0.472-0.912c0.283-0.196,0.652-0.294,1.109-0.294
		c0.456,0,0.812,0.091,1.066,0.27c0.256,0.178,0.384,0.507,0.384,0.984v0.277l-1.467,0.163c-0.673,0.076-1.258,0.181-1.751,0.31
		c-0.495,0.131-0.916,0.332-1.263,0.603c-0.228,0.186-0.41,0.419-0.545,0.702c-0.136,0.283-0.204,0.608-0.204,0.978
		c0,0.336,0.065,0.661,0.195,0.979c0.131,0.314,0.32,0.592,0.571,0.831c0.25,0.238,0.556,0.431,0.92,0.578
		c0.364,0.146,0.774,0.219,1.23,0.219c0.62,0,1.13-0.083,1.532-0.253c0.402-0.168,0.733-0.437,0.995-0.806l0.047,0.864h1.924
		c-0.055-0.456-0.095-0.901-0.122-1.337C157.819,56.181,157.807,55.745,157.807,55.312z M155.835,54.709
		c0,0.325-0.052,0.604-0.155,0.838c-0.104,0.233-0.242,0.43-0.416,0.588c-0.174,0.157-0.375,0.273-0.603,0.35
		s-0.467,0.115-0.717,0.115c-0.413,0-0.728-0.106-0.945-0.318s-0.326-0.465-0.326-0.759c0-0.314,0.133-0.563,0.399-0.748
		c0.266-0.186,0.713-0.316,1.345-0.393l1.417-0.162V54.709z M164.924,53.976c0,0.325-0.021,0.638-0.065,0.937
		c-0.043,0.299-0.125,0.564-0.244,0.798c-0.12,0.235-0.288,0.419-0.506,0.556c-0.217,0.136-0.5,0.203-0.847,0.203
		c-0.283,0-0.508-0.044-0.676-0.131c-0.169-0.087-0.307-0.205-0.416-0.359c-0.12-0.162-0.196-0.36-0.229-0.594
		s-0.048-0.508-0.048-0.822v-4.596h-2.086v4.986c0,1.064,0.202,1.836,0.603,2.314c0.478,0.586,1.206,0.879,2.184,0.879
		c0.5,0,0.953-0.096,1.361-0.284c0.407-0.189,0.73-0.46,0.969-0.807v0.896h2.086v-7.985h-2.086V53.976z M139.618,52.614
		c-0.168-0.591-0.425-1.097-0.766-1.516c-0.343-0.417-0.766-0.741-1.271-0.969c-0.506-0.229-1.084-0.343-1.735-0.343
		c-0.62,0-1.177,0.104-1.67,0.311c-0.495,0.205-0.918,0.493-1.271,0.863c-0.354,0.369-0.625,0.81-0.815,1.318
		c-0.19,0.512-0.285,1.072-0.285,1.681c0,0.585,0.087,1.131,0.26,1.637c0.174,0.506,0.432,0.948,0.774,1.328
		c0.343,0.38,0.769,0.679,1.279,0.896c0.51,0.218,1.103,0.325,1.776,0.325c0.565,0,1.062-0.078,1.492-0.235
		c0.429-0.157,0.798-0.358,1.107-0.603c0.31-0.246,0.562-0.515,0.758-0.809c0.195-0.291,0.342-0.579,0.44-0.862l-1.956-0.262
		c-0.12,0.327-0.332,0.603-0.636,0.833c-0.304,0.228-0.717,0.341-1.238,0.341c-0.576,0-1.047-0.179-1.41-0.537
		c-0.364-0.359-0.557-0.831-0.579-1.418h5.948C139.854,53.867,139.786,53.206,139.618,52.614z M133.873,53.145
		c0.012-0.336,0.08-0.622,0.204-0.855c0.125-0.233,0.277-0.425,0.457-0.57c0.179-0.146,0.38-0.252,0.603-0.317
		c0.223-0.065,0.443-0.1,0.66-0.1c0.228,0,0.456,0.037,0.685,0.106c0.228,0.07,0.431,0.181,0.611,0.327
		c0.179,0.146,0.328,0.336,0.448,0.569c0.119,0.233,0.184,0.515,0.195,0.84H133.873z M125.285,53.895h2.739v0.178
		c0,0.446-0.087,0.819-0.262,1.118c-0.173,0.299-0.393,0.539-0.659,0.725c-0.267,0.184-0.562,0.314-0.888,0.391
		c-0.327,0.076-0.637,0.113-0.93,0.113c-0.944,0-1.697-0.325-2.256-0.978c-0.56-0.65-0.84-1.634-0.84-2.949
		c0-0.661,0.076-1.232,0.228-1.71c0.152-0.479,0.368-0.875,0.644-1.19c0.278-0.314,0.606-0.548,0.987-0.7
		c0.38-0.151,0.798-0.228,1.254-0.228c0.62,0,1.171,0.164,1.654,0.497c0.483,0.33,0.812,0.854,0.986,1.571l2.069-0.31
		c-0.097-0.5-0.277-0.962-0.537-1.386c-0.261-0.423-0.592-0.791-0.994-1.1c-0.403-0.31-0.87-0.554-1.402-0.732
		c-0.532-0.181-1.119-0.269-1.759-0.269c-0.837,0-1.59,0.129-2.258,0.391c-0.667,0.26-1.232,0.63-1.694,1.106
		c-0.461,0.479-0.815,1.063-1.059,1.753c-0.245,0.689-0.367,1.458-0.367,2.306c0,0.88,0.117,1.667,0.351,2.364
		c0.233,0.694,0.566,1.287,1.001,1.774c0.434,0.49,0.961,0.865,1.58,1.125c0.62,0.26,1.315,0.391,2.086,0.391
		c0.771,0,1.434-0.133,1.987-0.399c0.555-0.266,0.989-0.626,1.305-1.082l0.064,1.287h1.711v-5.835h-4.742V53.895z"/>
	<path fill="#002749" d="M166.13,16.154v-5.649h-5.221V3.527h-7.264v6.978h-2.481v5.649h2.481v10.964
		c0,1.394,0.134,2.525,0.403,3.396c0.269,0.87,0.713,1.542,1.33,2.018c0.617,0.474,1.423,0.799,2.42,0.973
		c0.997,0.175,2.223,0.262,3.68,0.262h4.652v-5.745h-2.09c-1.202,0-2.024-0.166-2.468-0.497c-0.442-0.332-0.663-1.052-0.663-2.16
		v-9.209H166.13z M20.804,14.255H7.656V2.246H0.108v31.52h7.548V20.9h13.148v12.865h7.548V2.246h-7.548V14.255z M127.946,13.567
		c-1.061-1.219-2.375-2.145-3.941-2.778c-1.566-0.633-3.345-0.949-5.34-0.949c-1.771,0-3.425,0.285-4.96,0.854
		c-1.536,0.57-2.864,1.386-3.987,2.445c-1.125,1.061-2.011,2.343-2.66,3.846s-0.972,3.172-0.972,5.007
		c0,1.772,0.292,3.418,0.877,4.938c0.585,1.519,1.425,2.823,2.516,3.916c1.093,1.091,2.422,1.947,3.987,2.564
		c1.566,0.617,3.331,0.925,5.294,0.925c1.234,0,2.452-0.128,3.655-0.381c1.202-0.253,2.334-0.679,3.395-1.281
		c1.06-0.6,2.009-1.369,2.847-2.303c0.838-0.932,1.527-2.095,2.065-3.488l-6.74-1.234c-0.824,1.899-2.548,2.849-5.174,2.849
		c-0.665,0-1.322-0.096-1.97-0.285c-0.649-0.19-1.22-0.467-1.709-0.831c-0.492-0.364-0.895-0.822-1.211-1.377
		c-0.316-0.552-0.49-1.193-0.521-1.922h17.422c0.125-2.277-0.057-4.295-0.546-6.053C129.78,16.272,129.005,14.785,127.946,13.567z
		 M113.444,19.381c0-0.727,0.15-1.359,0.451-1.898c0.301-0.538,0.697-0.98,1.187-1.328c0.492-0.349,1.036-0.602,1.637-0.761
		c0.601-0.157,1.218-0.236,1.851-0.236c0.633,0,1.25,0.086,1.852,0.262c0.601,0.173,1.141,0.435,1.614,0.783
		c0.476,0.348,0.856,0.783,1.141,1.305s0.426,1.147,0.426,1.874H113.444z M54.317,13.567c-1.061-1.219-2.373-2.145-3.939-2.778
		c-1.566-0.633-3.347-0.949-5.34-0.949c-1.773,0-3.427,0.285-4.961,0.854c-1.535,0.57-2.864,1.386-3.987,2.445
		c-1.123,1.061-2.01,2.343-2.658,3.846c-0.649,1.503-0.974,3.172-0.974,5.007c0,1.772,0.293,3.418,0.879,4.938
		c0.585,1.519,1.423,2.823,2.516,3.916c1.091,1.091,2.42,1.947,3.987,2.564c1.566,0.617,3.329,0.925,5.292,0.925
		c1.234,0,2.453-0.128,3.657-0.381c1.202-0.253,2.332-0.679,3.393-1.281c1.061-0.6,2.009-1.369,2.849-2.303
		c0.838-0.932,1.526-2.095,2.065-3.488l-6.742-1.234c-0.822,1.899-2.546,2.849-5.174,2.849c-0.665,0-1.321-0.096-1.97-0.285
		c-0.649-0.19-1.218-0.467-1.708-0.831c-0.492-0.364-0.895-0.822-1.211-1.377c-0.316-0.552-0.492-1.193-0.521-1.922h17.42
		c0.127-2.277-0.055-4.295-0.544-6.053C56.153,16.272,55.378,14.785,54.317,13.567z M39.817,19.381c0-0.727,0.148-1.359,0.451-1.898
		c0.299-0.538,0.695-0.98,1.187-1.328c0.49-0.349,1.036-0.602,1.637-0.761c0.601-0.157,1.218-0.236,1.852-0.236
		c0.633,0,1.25,0.086,1.851,0.262c0.601,0.173,1.139,0.435,1.614,0.783c0.474,0.348,0.854,0.783,1.139,1.305
		s0.428,1.147,0.428,1.874H39.817z M99.712,13.21c-0.934-1.043-2.041-1.843-3.322-2.396c-1.282-0.554-2.683-0.831-4.201-0.831
		c-0.569,0-1.164,0.055-1.781,0.166s-1.227,0.292-1.828,0.545c-0.601,0.254-1.17,0.57-1.708,0.949
		c-0.54,0.38-1.013,0.855-1.425,1.425V2.246h-7.262v31.52h7.262v-2.185c0.316,0.475,0.729,0.887,1.234,1.234
		c0.507,0.349,1.045,0.633,1.614,0.854c0.569,0.221,1.154,0.387,1.757,0.498c0.6,0.111,1.187,0.167,1.756,0.167
		c1.551,0,2.99-0.27,4.32-0.807c1.33-0.538,2.476-1.33,3.441-2.375c0.965-1.043,1.717-2.317,2.256-3.82
		c0.538-1.503,0.807-3.204,0.807-5.104c0-1.929-0.253-3.654-0.76-5.174C101.365,15.537,100.646,14.255,99.712,13.21z M93.778,26.764
		c-0.965,1.156-2.176,1.732-3.632,1.732c-1.423,0-2.619-0.521-3.584-1.566s-1.446-2.612-1.446-4.7c0-2.12,0.481-3.719,1.446-4.793
		c0.965-1.077,2.161-1.615,3.584-1.615c1.456,0,2.667,0.586,3.632,1.756c0.965,1.173,1.448,2.706,1.448,4.604
		C95.226,24.081,94.743,25.608,93.778,26.764z M144.823,11.031c-1.204,0.586-2.086,1.245-2.845,2.227v-2.753h-7.121v23.261h7.262
		V22.375c0-0.98,0.129-2.89,0.382-3.485c0.806-1.896,2.532-2.391,4.244-2.391c1.004,0,1.825,0.216,2.242,0.358v-6.59
		C148.726,10.163,146.576,10.178,144.823,11.031z M71.154,11.031c-1.215,0.562-2.086,1.245-2.845,2.227v-2.753h-7.121v23.261h7.262
		V22.375c0-0.98,0.129-2.89,0.382-3.485c0.806-1.896,2.532-2.391,4.244-2.391c1.004,0,2.009,0.24,2.675,0.509v-6.74
		C75.619,10.236,73.354,10.017,71.154,11.031z"/>
	<path fill="#002749" d="M247.954,22.467c0,2.121-0.332,3.647-0.995,4.581c-0.665,0.934-1.71,1.4-3.134,1.4
		c-0.696,0-1.281-0.078-1.757-0.237s-0.87-0.458-1.187-0.901s-0.538-1.036-0.665-1.78c-0.126-0.743-0.189-1.765-0.189-3.062V10.505
		h-7.264v13.908c0,1.899,0.144,3.441,0.428,4.629c0.283,1.187,0.727,2.144,1.33,2.872c1.328,1.614,3.464,2.421,6.408,2.421
		c1.867,0,3.338-0.301,4.415-0.902c1.075-0.601,1.992-1.392,2.751-2.373v2.706h7.122V10.505h-7.264V22.467z M225.733,11.031
		c-1.215,0.562-2.086,1.245-2.845,2.227v-2.753h-7.12v23.261h7.262V22.375c0-0.98,0.129-2.89,0.382-3.485
		c0.806-1.896,2.532-2.391,4.243-2.391c1.005,0,2.009,0.24,2.676,0.509v-6.74C230.198,10.236,227.934,10.017,225.733,11.031z
		 M309.897,13.21c-0.934-1.043-2.041-1.843-3.323-2.396c-1.281-0.554-2.682-0.831-4.201-0.831c-0.569,0-1.165,0.055-1.78,0.166
		c-0.617,0.111-1.227,0.292-1.826,0.545c-0.602,0.254-1.173,0.578-1.71,0.974c-0.538,0.396-1.014,0.877-1.424,1.448v-2.611h-7.264
		v31.472h7.264V31.581c0.316,0.475,0.727,0.887,1.234,1.234c0.506,0.349,1.045,0.633,1.614,0.854
		c0.567,0.221,1.155,0.387,1.756,0.498c0.602,0.111,1.187,0.167,1.756,0.167c1.551,0,2.992-0.27,4.319-0.807
		c1.33-0.538,2.478-1.33,3.443-2.375c0.963-1.043,1.715-2.317,2.252-3.82c0.54-1.503,0.809-3.204,0.809-5.104
		c0-1.929-0.253-3.654-0.761-5.174C311.55,15.537,310.831,14.255,309.897,13.21z M303.963,26.764
		c-0.965,1.156-2.175,1.732-3.632,1.732c-1.423,0-2.617-0.521-3.582-1.566c-0.966-1.045-1.448-2.612-1.448-4.7
		c0-2.12,0.482-3.719,1.448-4.793c0.965-1.077,2.159-1.615,3.582-1.615c1.457,0,2.667,0.586,3.632,1.756
		c0.966,1.173,1.448,2.706,1.448,4.604C305.411,24.081,304.929,25.608,303.963,26.764z M195.92,22.134h7.69v0.476
		c0,1.014-0.207,1.86-0.617,2.539c-0.412,0.682-0.949,1.234-1.612,1.662c-0.665,0.427-1.426,0.729-2.279,0.902
		c-0.854,0.175-1.71,0.262-2.564,0.262c-2.532,0-4.565-0.831-6.1-2.493c-1.535-1.662-2.303-4.186-2.303-7.571
		c0-1.677,0.214-3.134,0.642-4.367c0.427-1.234,1.012-2.255,1.756-3.062c0.743-0.808,1.615-1.409,2.612-1.805
		c0.995-0.395,2.079-0.593,3.251-0.593c1.012,0,1.923,0.128,2.729,0.38c0.809,0.253,1.496,0.586,2.065,0.996
		c0.569,0.412,1.045,0.888,1.424,1.425c0.38,0.538,0.648,1.107,0.808,1.708l7.405-1.091c-0.38-1.551-1.006-2.936-1.876-4.153
		c-0.87-1.219-1.931-2.238-3.182-3.062c-1.25-0.822-2.666-1.455-4.247-1.899c-1.582-0.441-3.26-0.664-5.032-0.664
		c-2.437,0-4.659,0.373-6.669,1.115c-2.009,0.744-3.726,1.812-5.151,3.204c-1.423,1.394-2.532,3.085-3.322,5.08
		c-0.791,1.994-1.187,4.256-1.187,6.788c0,2.563,0.348,4.858,1.045,6.883c0.695,2.025,1.701,3.744,3.013,5.151
		c1.314,1.407,2.913,2.491,4.795,3.252c1.883,0.758,4.012,1.139,6.385,1.139c2.277,0,4.218-0.333,5.815-0.998
		c1.597-0.664,2.918-1.691,3.963-3.085l0.237,3.514h5.744V15.963H195.92V22.134z M340.456,18.028
		c-0.489-1.756-1.266-3.243-2.325-4.461c-1.061-1.219-2.374-2.145-3.939-2.778c-1.566-0.633-3.347-0.949-5.341-0.949
		c-1.772,0-3.426,0.285-4.96,0.854c-1.537,0.57-2.864,1.386-3.987,2.445c-1.125,1.061-2.011,2.343-2.659,3.846
		c-0.649,1.503-0.973,3.172-0.973,5.007c0,1.772,0.292,3.418,0.879,4.938c0.585,1.519,1.423,2.823,2.514,3.916
		c1.093,1.091,2.423,1.947,3.989,2.564s3.329,0.925,5.292,0.925c1.234,0,2.453-0.128,3.655-0.381s2.334-0.679,3.395-1.281
		c1.06-0.6,2.009-1.369,2.849-2.303c0.838-0.932,1.526-2.095,2.063-3.488l-6.74-1.234c-0.824,1.899-2.548,2.849-5.174,2.849
		c-0.665,0-1.322-0.096-1.97-0.285c-0.648-0.19-1.22-0.467-1.71-0.831c-0.489-0.364-0.895-0.822-1.209-1.377
		c-0.316-0.552-0.492-1.193-0.523-1.922h17.422C341.128,21.804,340.948,19.786,340.456,18.028z M323.629,19.381
		c0-0.727,0.15-1.359,0.45-1.898c0.301-0.538,0.697-0.98,1.187-1.328c0.492-0.349,1.036-0.602,1.64-0.761
		c0.6-0.157,1.217-0.236,1.852-0.236c0.631,0,1.248,0.086,1.851,0.262c0.6,0.173,1.139,0.435,1.613,0.783
		c0.476,0.348,0.855,0.783,1.14,1.305c0.285,0.521,0.427,1.147,0.427,1.874H323.629z M281.354,13.21
		c-0.934-1.043-2.042-1.843-3.322-2.396c-1.282-0.554-2.683-0.831-4.201-0.831c-0.571,0-1.164,0.055-1.781,0.166
		s-1.227,0.292-1.828,0.545c-0.601,0.254-1.17,0.578-1.708,0.974c-0.539,0.396-1.013,0.877-1.425,1.448v-2.611h-7.262v31.472h7.262
		V31.581c0.316,0.475,0.729,0.887,1.234,1.234c0.505,0.349,1.045,0.633,1.614,0.854c0.569,0.221,1.154,0.387,1.756,0.498
		c0.601,0.111,1.188,0.167,1.757,0.167c1.551,0,2.99-0.27,4.32-0.807c1.329-0.538,2.476-1.33,3.44-2.375
		c0.966-1.043,1.717-2.317,2.255-3.82c0.539-1.503,0.808-3.204,0.808-5.104c0-1.929-0.255-3.654-0.76-5.174
		C283.007,15.537,282.285,14.255,281.354,13.21z M275.419,26.764c-0.965,1.156-2.176,1.732-3.632,1.732
		c-1.423,0-2.618-0.521-3.584-1.566c-0.965-1.045-1.448-2.612-1.448-4.7c0-2.12,0.483-3.719,1.448-4.793
		c0.966-1.077,2.161-1.615,3.584-1.615c1.456,0,2.667,0.586,3.632,1.756c0.966,1.173,1.448,2.706,1.448,4.604
		C276.867,24.081,276.385,25.608,275.419,26.764z"/>
	<g>
		<path fill="#AF1919" d="M375.872,0c-12.224,0-22.141,9.912-22.141,22.134c0,12.224,9.917,22.133,22.141,22.133
			c12.22,0,22.128-9.909,22.128-22.133C398,9.912,388.092,0,375.872,0z"/>
		<path fill="#FFFFFF" d="M365.374,28.422h-3.43V15.86h9.772v-5.352h3.431v13.588h-3.431v-5.354h-6.343V28.422z M384.918,33.775
			h-3.455v-5.354h-11.188v5.354h-3.455v-13.59h3.455v5.353h11.188v-5.353h3.455V33.775z M389.789,28.422h-3.428v-9.679h-6.345
			l0.004,5.354h-3.433V10.509h3.433v5.352h9.769V28.422z"/>
	</g>
</g>
</svg>
