<?xml version="1.0" encoding="UTF-8"?>
<svg xmlns="http://www.w3.org/2000/svg" version="1.1" viewBox="0 0 260 45">
  <!-- Reibstein-Logo, helle Variante: weißer Text + rotes Signet (für dunkle Flächen). -->
  <defs>
    <style>
      .st0 { fill: #fff; }
      .st1 { fill: #e4002a; }
      .st2 { fill: #fff; }
    </style>
  </defs>
  <g>
    <circle class="st1" cx="186.74" cy="22.51" r="17.5"/>
    <path class="st0" d="M183.44,23.61h2.64v-11h-2.64v4.62h-7.92v10.34h2.64v-7.82h5.28v3.87h0ZM191.36,24.93h-9.24v-3.96h-2.64v11h2.64v-4.4h9.24v4.4h2.64v-11h-2.64v3.96ZM190.04,17.23v-4.62h-2.64v11h2.64v-3.87h5.28v7.82h2.64v-10.34h-7.92Z"/>
  </g>
  <path class="st2" d="M47.67,15.2h5.16v-4.55h-5.16v4.55ZM47.67,35.63h5.16v-18.43h-5.16v18.43ZM34.97,16.68c-5.58,0-9.55,3.93-9.55,9.61s3.63,9.78,9.69,9.78c5.08,0,8.02-2.92,9.08-5.86l-4.88-.88c-.75,2.07-2.13,2.56-4.18,2.56-2.65,0-4.35-1.47-4.42-4.09h13.59c0-7.39-3.52-11.13-9.34-11.13h0ZM30.72,24.31c.04-.65.18-1.19.46-1.72.25-.48.57-.83.95-1.15.78-.63,1.76-.92,2.76-.92s2.01.25,2.78.85c.38.3.76.73.99,1.22.24.52.35,1.01.37,1.72,0,0-8.31,0-8.31,0ZM18.67,25.03c1.51-.6,2.7-1.47,3.52-2.59s1.24-2.52,1.24-4.16c0-1.44-.26-2.67-.76-3.63-.51-.96-1.26-1.75-2.23-2.34-.98-.59-2.2-1.02-3.64-1.28-1.44-.26-3.11-.39-4.96-.39H3.37v24.97h5.43v-9.58h4.31l.02.03,5.28,9.55h6.2l-6-10.57.06-.03v.02ZM16.94,20.46c-.33.29-.68.5-1.08.64-.44.16-.95.27-1.53.32-.57.05-1.19.08-1.87.08h-3.67v-6.28h3.54c.77,0,1.5.03,2.17.1.67.07,1.25.22,1.74.44.49.22.88.55,1.15.96.28.41.41.96.41,1.62,0,.91-.28,1.6-.87,2.11h.01ZM158.45,21.16l-.03-.12c-.22-.83-.55-1.53-.97-2.09-.45-.58-1.03-1.05-1.71-1.38-.85-.42-1.6-.64-2.37-.71-1.07-.1-2.02-.06-2.91.1-1.02.19-1.93.58-2.65,1.12-.49.37-.97.87-1.21,1.23l-.11.17v-2.29h-5.11v18.43h5.16v-9.34c0-.77.06-1.48.18-2.11.13-.68.35-1.26.65-1.73,0-.02.03-.04.04-.06.3-.45.71-.8,1.22-1.05.43-.21.94-.32,1.54-.35h.43c.34.01.65.06.93.14.22.06.43.15.62.27.18.11.34.24.49.39.15.16.29.34.41.56.13.24.24.5.32.79.05.19.1.4.13.64.07.54.11,1.22.11,2.01v9.84h5.16v-11.18c0-1.33-.11-2.43-.32-3.28h0ZM119.76,16.68c-5.58,0-9.55,3.93-9.55,9.61s3.63,9.78,9.69,9.78c5.08,0,8.02-2.92,9.08-5.86l-4.88-.88c-.75,2.07-2.13,2.56-4.18,2.56-2.65,0-4.35-1.47-4.42-4.09h13.59c0-7.39-3.52-11.13-9.34-11.13h.01ZM115.51,24.31c.04-.65.18-1.19.46-1.72.25-.48.57-.83.95-1.15.78-.63,1.76-.92,2.76-.92s2.01.25,2.78.85c.38.3.76.73.99,1.22.24.52.35,1.01.37,1.72h-8.31ZM132.4,35.63h5.16v-18.43h-5.16v18.43ZM132.4,15.2h5.16v-4.55h-5.16v4.55ZM104.04,11.67h-5.16v5.53h-2v4.06h2v8.54c0,4.3.89,5.83,5.44,5.83h3.73v-3.98h-1.3c-1.83,0-2.71-.33-2.71-3.01v-7.37h4.01v-4.06h-4.01v-5.53h0ZM67.36,16.73c-2.44,0-4.49,1.02-5.57,2.82v-8.9h-5.16v24.97h5.16v-2.2c1.23,2.03,3.53,2.65,5.43,2.65,4.63,0,8.12-3.46,8.12-9.71,0-5.67-3.2-9.63-7.98-9.63ZM65.91,31.94c-2.62,0-4.23-2.08-4.23-5.55s1.68-5.52,4.23-5.52c2.36,0,4.03,2.24,4.03,5.55s-1.63,5.52-4.03,5.52ZM93.16,26.2c-1.23-.88-3.05-1.29-3.94-1.52s-3.71-.75-4.27-.93c-.61-.17-1.32-.41-1.7-.85-.56-.64-.37-1.54.54-1.95.85-.38,2.18-.51,3.39-.29,1.15.21,2.14.74,2.57,1.76.07.13.14.3.21.59l4.77-.63c-.13-.67-.36-1.3-.66-1.85-1.44-2.54-4.7-3.7-7.57-3.76-1.82-.04-3.75.24-5.27,1.02-1.44.74-2.38,1.86-2.82,3.09-.51,1.41-.35,3.37.86,4.73,1.18,1.32,2.41,1.79,4.11,2.22.43.11,1.68.36,2.63.55,1.42.28,2.77.53,3.46,1.03.64.46.56,1.32.03,1.91-.29.32-.71.49-1.17.65-.8.27-2.16.37-3.31.09-.91-.22-1.76-.78-2.27-1.63-.23-.38-.45-.82-.51-1.32l-4.83.67c.19,1.19.51,1.91.96,2.62,1.58,2.47,4.67,3.6,7.79,3.65,2.3.04,4.6-.41,6.33-1.58.94-.64,1.75-1.55,2.15-2.62.68-1.81.46-4.29-1.48-5.68v.03Z"/>
</svg>
